<svg xmlns="http://www.w3.org/2000/svg" width="150" height="24" viewBox="0 0 150 24">
    <g fill="none" fill-rule="nonzero">
        <g fill="#7A7979">
            <path d="M34.47 14.046c-.206.011-.423.023-.652.023h-2.56v3.04h-1.097V7.474h3.657c2.412 0 3.794 1.189 3.794 3.235 0 1.6-.765 2.674-2.16 3.12l2.263 3.28h-1.257l-1.988-3.063zm-.64-1.029c1.748 0 2.742-.766 2.742-2.274 0-1.463-.994-2.206-2.742-2.206h-2.56v4.469h2.56v.011zM43.601 8.537v3.166h4.857v1.063h-4.857v3.303h5.611v1.051h-6.72V7.486h6.538v1.063H43.6zM57.19 17.109L53.28 7.474h1.189l3.314 8.355 3.326-8.355h1.154l-3.932 9.635zM67.43 8.537v3.166h4.857v1.063H67.43v3.303h5.611v1.051h-6.72V7.486h6.537v1.063H67.43zM82.138 14.046c-.206.011-.423.023-.651.023h-2.56v3.04H77.83V7.474h3.657c2.411 0 3.794 1.189 3.794 3.235 0 1.6-.766 2.674-2.16 3.12l2.263 3.28h-1.257l-1.989-3.063zm-.651-1.029c1.748 0 2.743-.766 2.743-2.274 0-1.463-.995-2.206-2.743-2.206h-2.56v4.469h2.56v.011zM96.87 8.331L96.4 9.36a4.935 4.935 0 0 0-2.651-.811c-1.235 0-2.046.468-2.046 1.28 0 2.48 5.428 1.188 5.406 4.685 0 1.612-1.418 2.64-3.486 2.64-1.406 0-2.777-.605-3.692-1.474l.492-.994c.891.868 2.114 1.36 3.211 1.36 1.395 0 2.263-.56 2.263-1.486.012-2.537-5.406-1.189-5.406-4.64 0-1.509 1.338-2.491 3.338-2.491 1.097.011 2.24.365 3.04.902zM103.178 8.537v3.166h4.857v1.063h-4.857v3.303h5.612v1.051h-6.72V7.486h6.537v1.063h-5.429zM124.824 16.069v1.051h-5.326V7.486h1.097v8.594h4.229zM130.824 14.674l-1.074 2.435h-1.166l4.32-9.635h1.143l4.308 9.635h-1.2l-1.074-2.435h-5.257zm2.617-5.943l-2.149 4.892h4.32l-2.171-4.892zM146.172 7.474c1.943 0 3.109.892 3.109 2.412 0 1.131-.651 1.943-1.771 2.171 1.394.206 2.205 1.12 2.205 2.434 0 1.635-1.291 2.618-3.474 2.618h-4.126V7.474h4.057zm-2.96 4.16h2.903c1.292 0 2.046-.56 2.046-1.565 0-.983-.754-1.532-2.046-1.532h-2.903v3.097zm0 4.435h2.903c1.566 0 2.48-.618 2.48-1.726 0-1.052-.903-1.669-2.48-1.669h-2.903v3.395z"/>
        </g>
        <path fill="#F7AB14" d="M8.297 23.017V.526S8.263.286 7.943.4L.41 5.086s-.08.148.092.205H2.97v14.766c0 .126.023.24.08.343.355.674 1.829 2.949 5.246 2.617z"/>
        <path fill="#0B4D95" d="M8.891.4v22.491s.035.24.355.126l7.531-4.686s.08-.148-.091-.205h-2.469V3.36a.742.742 0 0 0-.091-.354C13.77 2.33 12.309.08 8.89.4zM6.274 4.994a.639.639 0 1 1-1.28 0c0-.354.286-.64.64-.64.355.012.64.297.64.64z"/>
    </g>
</svg>
